# xmcd
#
# Track frame offsets:
#	150
#	26973
#	47796
#	86677
#	107093
#	138770
#	189520
#	206833
#	237682
#
# Disc length: 3731 seconds
#
# Revision: 1
# Processed by: cddbd v1.5.1PL2 Copyright (c) Steve Scherf et al.
# Submitted via: CDmax 2.0
#
DISCID=820e9109
DTITLE=Eric Clapton - Will It Go Round In Circles (disc2)
DYEAR=2001
DGENRE=Blues
TTITLE0=Badge
TTITLE1=Hoochie Coochie Man
TTITLE2=Have You Ever Loved a Woman
TTITLE3=Cocaine
TTITLE4=Wonderful Tonight
TTITLE5=Layla
TTITLE6=Will It Go Round in Circles
TTITLE7=Sunshine of Your Love
TTITLE8=Somewhere Over the Rainbow
EXTD=Eric Clapton\t\tguitar, vocals\nAndy Fairweather Low\tguitar\nDavid Sanc
EXTD=ious\t\tkeyboards\nBilly Preston\t\tkeyboards, vocals\nNathan East\t\tba
EXTD=ss\nSteve Gadd\t\tdrums\n\nRecorded live at Oakland Arena, Oakland, CA
EXTD=, USA on August 11th, 2001
EXTT0=
EXTT1=
EXTT2=
EXTT3=
EXTT4=
EXTT5=
EXTT6=
EXTT7=
EXTT8=
PLAYORDER=
